<svg width="24" height="24" viewBox="0 0 24 24" fill="none" xmlns="http://www.w3.org/2000/svg">
  <path
    d="M9.87868 20.6213L10.4444 20.0556L9.87868 20.6213ZM21.1213 20.6213L20.5556 20.0556L21.1213 20.6213ZM21.1213 9.37868L20.5556 9.94437L21.1213 9.37868ZM15 8.5V9.3H16V8.5V7.7H15V8.5ZM22 14.5H21.2V15.5H22H22.8V14.5H22ZM16 21.5V20.7H15V21.5V22.3H16V21.5ZM9 15.5H9.8V14.5H9H8.2V15.5H9ZM15 21.5V20.7C13.5632 20.7 12.566 20.6983 11.8148 20.5973C11.0866 20.4994 10.7103 20.3216 10.4444 20.0556L9.87868 20.6213L9.31299 21.187C9.92575 21.7998 10.6959 22.0613 11.6016 22.183C12.4842 22.3017 13.6084 22.3 15 22.3V21.5ZM9 15.5H8.2C8.2 16.8916 8.1983 18.0158 8.31697 18.8984C8.43873 19.8041 8.70024 20.5743 9.31299 21.187L9.87868 20.6213L10.4444 20.0556C10.1784 19.7897 10.0006 19.4134 9.9027 18.6852C9.8017 17.934 9.8 16.9368 9.8 15.5H9ZM22 15.5H21.2C21.2 16.9368 21.1983 17.934 21.0973 18.6852C20.9994 19.4134 20.8216 19.7897 20.5556 20.0556L21.1213 20.6213L21.687 21.187C22.2998 20.5743 22.5613 19.8041 22.683 18.8984C22.8017 18.0158 22.8 16.8916 22.8 15.5H22ZM16 21.5V22.3C17.3916 22.3 18.5158 22.3017 19.3984 22.183C20.3041 22.0613 21.0743 21.7998 21.687 21.187L21.1213 20.6213L20.5556 20.0556C20.2897 20.3216 19.9134 20.4994 19.1852 20.5973C18.434 20.6983 17.4368 20.7 16 20.7V21.5ZM16 8.5V9.3C17.4368 9.3 18.434 9.3017 19.1852 9.4027C19.9134 9.50061 20.2897 9.67844 20.5556 9.94437L21.1213 9.37868L21.687 8.81299C21.0743 8.20024 20.3041 7.93873 19.3984 7.81697C18.5158 7.6983 17.3916 7.7 16 7.7V8.5ZM22 14.5H22.8C22.8 13.1084 22.8017 11.9842 22.683 11.1016C22.5613 10.1959 22.2998 9.42575 21.687 8.81299L21.1213 9.37868L20.5556 9.94437C20.8216 10.2103 20.9994 10.5866 21.0973 11.3148C21.1983 12.066 21.2 13.0632 21.2 14.5H22ZM15 8.5V7.7C13.6084 7.7 12.4842 7.6983 11.6016 7.81697C10.6959 7.93873 9.92575 8.20024 9.31299 8.81299L9.87868 9.37868L10.4444 9.94437C10.7103 9.67844 11.0866 9.50061 11.8148 9.4027C12.566 9.3017 13.5632 9.3 15 9.3V8.5ZM9 14.5H9.8C9.8 13.0632 9.8017 12.066 9.9027 11.3148C10.0006 10.5866 10.1784 10.2103 10.4444 9.94437L9.87868 9.37868L9.31299 8.81299C8.70024 9.42575 8.43873 10.1959 8.31697 11.1016C8.1983 11.9842 8.2 13.1084 8.2 14.5H9Z"
    fill="currentColor" />
  <path
    d="M16.5 8.5V8.5C16.5 7.10218 16.5 6.40326 16.2716 5.85195C15.9672 5.11687 15.3831 4.53284 14.6481 4.22836C14.0967 4 13.3978 4 12 4H9.5C6.67157 4 5.25736 4 4.37868 4.87868C3.5 5.75736 3.5 7.17157 3.5 10V11.5C3.5 13.8456 3.5 15.0184 4.11994 15.8263C4.27954 16.0343 4.46572 16.2205 4.67372 16.3801C5.48164 17 6.65442 17 9 17V17"
    stroke="currentColor" stroke-width="1.6" />
</svg>
  