<svg width="25" height="24" viewBox="0 0 25 24" fill="none" xmlns="http://www.w3.org/2000/svg">
<path fill-rule="evenodd" clip-rule="evenodd" d="M21.9189 15.732C21.9189 19.31 19.8099 21.419 16.2319 21.419H8.44988C4.86288 21.419 2.74988 19.31 2.74988 15.732V7.932C2.74988 4.359 4.06388 2.25 7.64288 2.25H9.64288C10.3609 2.251 11.0369 2.588 11.4669 3.163L12.3799 4.377C12.8119 4.951 13.4879 5.289 14.2059 5.29H17.0359C20.6229 5.29 21.9469 7.116 21.9469 10.767L21.9189 15.732Z" stroke="currentColor" stroke-width="1.6" stroke-linecap="round" stroke-linejoin="round"/>
<path d="M2.8125 12.7969C3.06667 11.5129 3.19375 10.8709 3.4649 10.3557C3.96666 9.40241 4.83174 8.69179 5.86435 8.3847C6.42238 8.21875 7.07682 8.21875 8.38571 8.21875H16.4044C17.6722 8.21875 18.306 8.21875 18.8468 8.37391C19.9212 8.68221 20.8176 9.42599 21.3188 10.4251C21.571 10.9279 21.688 11.5509 21.9219 12.7969" stroke="currentColor" stroke-width="1.6" stroke-linecap="round" stroke-linejoin="round"/>
</svg>
