<svg width="24" height="24" viewBox="0 0 24 24" fill="none" xmlns="http://www.w3.org/2000/svg">
  <path fill-rule="evenodd" clip-rule="evenodd"
    d="M21.4189 15.732C21.4189 19.31 19.3099 21.419 15.7319 21.419H7.94988C4.36288 21.419 2.24988 19.31 2.24988 15.732V7.932C2.24988 4.359 3.56388 2.25 7.14288 2.25H9.14288C9.86088 2.251 10.5369 2.588 10.9669 3.163L11.8799 4.377C12.3119 4.951 12.9879 5.289 13.7059 5.29H16.5359C20.1229 5.29 21.4469 7.116 21.4469 10.767L21.4189 15.732Z"
    stroke="currentColor" stroke-width="1.6" stroke-linecap="round" stroke-linejoin="round" />
  <path
    d="M2.3125 12.7969V12.7969C2.56667 11.5129 2.69375 10.8709 2.9649 10.3557C3.46666 9.40241 4.33174 8.69179 5.36435 8.3847C5.92238 8.21875 6.57682 8.21875 7.88571 8.21875H15.9044C17.1722 8.21875 17.806 8.21875 18.3468 8.37391C19.4212 8.68221 20.3176 9.42599 20.8188 10.4251C21.071 10.9279 21.188 11.5509 21.4219 12.7969V12.7969"
    stroke="currentColor" stroke-width="1.6" stroke-linecap="round" stroke-linejoin="round" />
  <path d="M14.5423 14.5973H9.45508M11.9987 12.0537V17.141" stroke="currentColor" stroke-width="1.6"
    stroke-linecap="round" />
</svg>
  