<svg width="24" height="24" viewBox="0 0 24 24" fill="none" xmlns="http://www.w3.org/2000/svg">
<path d="M12.8747 2.74979H7.65069C4.63869 2.74979 2.74969 4.88379 2.74969 7.90379V16.0498C2.74969 19.0698 4.63069 21.2038 7.65069 21.2038H16.2977C19.3227 21.2038 21.2027 19.0698 21.2027 16.0498V11.9373" stroke="currentColor" stroke-width="1.6" stroke-linecap="round" stroke-linejoin="round"/>
<path fill-rule="evenodd" clip-rule="evenodd" d="M10.7031 8.785C10.7031 9.805 9.87711 10.631 8.85711 10.631C7.83811 10.631 7.01111 9.805 7.01111 8.785C7.01111 7.765 7.83811 6.939 8.85711 6.939C9.87611 6.94 10.7021 7.766 10.7031 8.785Z" stroke="currentColor" stroke-width="1.6" stroke-linecap="round" stroke-linejoin="round"/>
<path d="M21.207 14.951C20.284 14.001 18.509 12.082 16.579 12.082C14.648 12.082 13.535 16.315 11.678 16.315C9.821 16.315 8.134 14.401 6.646 15.628C5.158 16.854 3.75 19.361 3.75 19.361" stroke="currentColor" stroke-width="1.6" stroke-linecap="round" stroke-linejoin="round"/>
<path d="M18.7687 2L19.4257 3.31397C19.6481 3.75866 19.7593 3.98101 19.9078 4.17369C20.0396 4.34466 20.1928 4.49793 20.3638 4.62972C20.5565 4.77825 20.7788 4.88942 21.2235 5.11177L22.5375 5.76875L21.2235 6.42573C20.7788 6.64808 20.5565 6.75925 20.3638 6.90778C20.1928 7.03957 20.0396 7.19284 19.9078 7.36381C19.7593 7.55649 19.6481 7.77884 19.4257 8.22353L18.7688 9.5375L18.1118 8.22353C17.8894 7.77884 17.7782 7.55649 17.6297 7.36381C17.4979 7.19284 17.3447 7.03957 17.1737 6.90778C16.981 6.75925 16.7587 6.64808 16.314 6.42573L15 5.76875L16.314 5.11177C16.7587 4.88942 16.981 4.77825 17.1737 4.62972C17.3447 4.49793 17.4979 4.34466 17.6297 4.17369C17.7782 3.98101 17.8894 3.75866 18.1118 3.31397L18.7687 2Z" stroke="currentColor" stroke-width="1.6" stroke-linecap="round" stroke-linejoin="round"/>
</svg>
