<svg width="24" height="24" viewBox="0 0 24 24" fill="none" xmlns="http://www.w3.org/2000/svg">
  <path
    d="M20.4997 11.8449C20.4997 11.2232 20.4491 10.5982 20.3411 9.98657H11.6758V13.5082H16.638C16.4321 14.644 15.7704 15.6488 14.8016 16.2873V18.5723H17.7621C19.5005 16.9795 20.4997 14.6272 20.4997 11.8449Z"
    fill="#4285F4" />
  <path
    d="M11.6744 20.7801C14.1522 20.7801 16.2417 19.9703 17.7641 18.5724L14.8037 16.2873C13.98 16.8452 12.9167 17.161 11.6778 17.161C9.2811 17.161 7.24895 15.5514 6.51981 13.3873H3.46484V15.743C5.0244 18.8311 8.20089 20.7801 11.6744 20.7801Z"
    fill="#34A853" />
  <path
    d="M6.51712 13.3873C6.1323 12.2515 6.1323 11.0216 6.51712 9.88577V7.53015H3.46553C2.16253 10.1143 2.16253 13.1588 3.46553 15.7429L6.51712 13.3873Z"
    fill="#FBBC04" />
  <path
    d="M11.6744 6.10875C12.9842 6.08859 14.2501 6.5792 15.1986 7.47978L17.8215 4.86877C16.1607 3.31628 13.9564 2.46275 11.6744 2.48963C8.20089 2.48963 5.0244 4.43865 3.46484 7.53019L6.51643 9.88581C7.2422 7.71837 9.27772 6.10875 11.6744 6.10875Z"
    fill="#EA4335" />
</svg>
  