<svg width="24" height="24" viewBox="0 0 24 24" fill="none" xmlns="http://www.w3.org/2000/svg">
<path fill-rule="evenodd" clip-rule="evenodd" d="M4.3669 4H19.6331C20.5261 4.00013 21.3825 4.36072 22.0139 5.00247C22.6453 5.64421 23 6.51454 23 7.42204V16.578C23 17.4855 22.6453 18.3558 22.0139 18.9975C21.3825 19.6393 20.5261 19.9999 19.6331 20H12H4.3669C3.4739 19.9999 2.61751 19.6393 1.98611 18.9975C1.35471 18.3558 1 17.4855 1 16.578V7.42204C1 6.51454 1.35471 5.64421 1.98611 5.00247C2.61751 4.36072 3.4739 4.00013 4.3669 4Z" stroke="currentColor" stroke-width="1.6" stroke-linecap="round" stroke-linejoin="round"/>
<circle cx="6" cy="8" r="1" fill="currentColor"/>
<circle cx="6" cy="16" r="1" fill="currentColor"/>
<path d="M13 12C13 12.5523 12.5523 13 12 13C11.4477 13 11 12.5523 11 12C11 11.4477 11.4477 11 12 11C12.5523 11 13 11.4477 13 12Z" fill="currentColor"/>
<path d="M9 12C9 12.5523 8.55228 13 8 13C7.44772 13 7 12.5523 7 12C7 11.4477 7.44772 11 8 11C8.55228 11 9 11.4477 9 12Z" fill="currentColor"/>
<path d="M17 12C17 12.5523 16.5523 13 16 13C15.4477 13 15 12.5523 15 12C15 11.4477 15.4477 11 16 11C16.5523 11 17 11.4477 17 12Z" fill="currentColor"/>
<path d="M11 8C11 8.55228 10.5523 9 10 9C9.44772 9 9 8.55228 9 8C9 7.44772 9.44772 7 10 7C10.5523 7 11 7.44772 11 8Z" fill="currentColor"/>
<path d="M15 8C15 8.55228 14.5523 9 14 9C13.4477 9 13 8.55228 13 8C13 7.44772 13.4477 7 14 7C14.5523 7 15 7.44772 15 8Z" fill="currentColor"/>
<circle cx="18" cy="8" r="1" fill="currentColor"/>
<circle cx="18" cy="16" r="1" fill="currentColor"/>
<path d="M9 16C9 15.4477 9.44772 15 10 15H14C14.5523 15 15 15.4477 15 16C15 16.5523 14.5523 17 14 17H10C9.44772 17 9 16.5523 9 16Z" fill="currentColor"/>
</svg>
