<svg width="24" height="24" viewBox="0 0 24 24" fill="none" xmlns="http://www.w3.org/2000/svg">
<rect x="0.499756" y="0.5" width="23" height="23" rx="11.5" stroke="#C5CBD3"/>
<path d="M9.82495 7.16992C12.4841 7.17003 14.6394 9.32617 14.6394 11.9854C14.6392 14.6444 12.484 16.7997 9.82495 16.7998C7.16582 16.7998 5.00971 14.6444 5.00952 11.9854C5.00952 9.3261 7.1657 7.16992 9.82495 7.16992ZM9.82495 9.08984C8.22609 9.08984 6.92944 10.3865 6.92944 11.9854C6.92963 13.5841 8.2262 14.8799 9.82495 14.8799C11.4236 14.8798 12.7193 13.584 12.7195 11.9854C12.7195 10.3866 11.4237 9.08995 9.82495 9.08984Z" fill="#181818"/>
<rect x="16.0797" y="7.17" width="1.98" height="9.63" fill="#181818"/>
</svg>
