<svg width="61" height="60" viewBox="0 0 61 60" fill="none" xmlns="http://www.w3.org/2000/svg">
<rect x="1" y="0.5" width="59" height="59" rx="29.5" stroke="#485056"/>
<path d="M25.0625 17.9248C31.7106 17.9248 37.0996 23.3148 37.0996 29.9629C37.0994 36.6108 31.7105 42 25.0625 42C18.4145 42 13.0256 36.6108 13.0254 29.9629C13.0254 23.3148 18.4144 17.9248 25.0625 17.9248ZM25.0625 22.7246C21.0653 22.7246 17.8252 25.9657 17.8252 29.9629C17.8254 33.9599 21.0655 37.2002 25.0625 37.2002C29.0595 37.2002 32.2996 33.9599 32.2998 29.9629C32.2998 25.9657 29.0597 22.7246 25.0625 22.7246Z" fill="white"/>
<rect x="40.7" y="17.925" width="4.95" height="24.075" fill="white"/>
</svg>
