<svg width="24" height="24" viewBox="0 0 24 24" fill="none" xmlns="http://www.w3.org/2000/svg">
<rect x="0.5" y="0.5" width="23" height="23" rx="11.5" stroke="#485056"/>
<path d="M9.8252 7.16992C12.4844 7.17003 14.6396 9.32617 14.6396 11.9854C14.6395 14.6444 12.4842 16.7997 9.8252 16.7998C7.16606 16.7998 5.00996 14.6444 5.00977 11.9854C5.00977 9.3261 7.16594 7.16992 9.8252 7.16992ZM9.8252 9.08984C8.22633 9.08984 6.92969 10.3865 6.92969 11.9854C6.92988 13.5841 8.22645 14.8799 9.8252 14.8799C11.4239 14.8798 12.7195 13.584 12.7197 11.9854C12.7197 10.3866 11.424 9.08995 9.8252 9.08984Z" fill="white"/>
<rect x="16.08" y="7.17004" width="1.98" height="9.63" fill="white"/>
</svg>
