<svg width="24" height="24" viewBox="0 0 24 24" fill="none" xmlns="http://www.w3.org/2000/svg">
  <path
    d="M17.8496 11.5442C17.0465 10.6829 16.0631 10.0096 14.9697 9.57227M20.7749 8.81625C19.5702 7.52437 18.0952 6.51439 16.4551 5.8584C14.815 5.20241 13.0504 4.91635 11.2871 5.02111M8.3418 14.5905C8.95473 13.9332 9.7335 13.4532 10.5962 13.2012C11.4588 12.9491 12.3735 12.9335 13.244 13.1574M6.14844 11.5438C7.0968 10.5268 8.29388 9.77461 9.62162 9.36133M3.22266 8.81604C4.12052 7.85319 5.17071 7.04466 6.33114 6.42285M4.41309 4L18.5552 18.1421M11.999 19C11.4467 19 10.999 18.5523 10.999 18C10.999 17.4477 11.4467 17 11.999 17C12.5513 17 12.999 17.4477 12.999 18C12.999 18.5523 12.5513 19 11.999 19Z"
    stroke="currentColor" stroke-width="1.6" stroke-linecap="round" stroke-linejoin="round" />
</svg>
  