<svg width="24" height="24" viewBox="0 0 24 24" fill="none" xmlns="http://www.w3.org/2000/svg">
  <path
    d="M8.87682 15.6163L3.21997 21.2732M12.1945 6.64185L10.6336 8.20273C10.5063 8.33006 10.4426 8.39372 10.3701 8.4443C10.3057 8.4892 10.2363 8.52637 10.1632 8.55503C10.0809 8.58732 9.99261 8.60498 9.81604 8.64029L6.15158 9.37318C5.19927 9.56364 4.72312 9.65887 4.50036 9.90993C4.30629 10.1286 4.21768 10.4213 4.25783 10.711C4.30392 11.0434 4.64728 11.3868 5.33399 12.0735L12.4197 19.1592C13.1064 19.8459 13.4498 20.1893 13.7823 20.2354C14.0719 20.2755 14.3646 20.1869 14.5833 19.9929C14.8343 19.7701 14.9296 19.2939 15.12 18.3416L15.8529 14.6772C15.8882 14.5006 15.9059 14.4123 15.9382 14.33C15.9668 14.2569 16.004 14.1875 16.0489 14.1231C16.0995 14.0506 16.1632 13.9869 16.2905 13.8596L17.8514 12.2987C17.9328 12.2173 17.9735 12.1766 18.0182 12.1411C18.058 12.1095 18.1001 12.081 18.1441 12.0558C18.1937 12.0275 18.2466 12.0048 18.3525 11.9594L20.8468 10.8904C21.5745 10.5786 21.9384 10.4226 22.1037 10.1706C22.2482 9.95028 22.2999 9.68178 22.2475 9.42351C22.1877 9.12816 21.9077 8.84825 21.3479 8.28842L16.2048 3.14529C15.645 2.58546 15.365 2.30555 15.0697 2.24568C14.8114 2.19332 14.5429 2.24503 14.3226 2.38956C14.0706 2.55484 13.9147 2.91869 13.6028 3.64639L12.5338 6.14075C12.4884 6.24656 12.4657 6.29947 12.4374 6.34908C12.4122 6.39316 12.3837 6.43525 12.3522 6.47499C12.3166 6.51974 12.2759 6.56044 12.1945 6.64185Z"
    stroke="currentColor" stroke-width="1.6" stroke-linecap="round" stroke-linejoin="round" />
</svg>
  