<svg width="24" height="24" viewBox="0 0 24 24" fill="none" xmlns="http://www.w3.org/2000/svg">
  <path
    d="M4.30096 7.8134L20.2153 6.15979M4.30061 7.81001C4.13705 7.82275 4.01761 7.82562 3.9089 7.8155C3.10346 7.74053 2.42249 7.18775 2.18352 6.41493C2.12533 6.22674 2.10132 5.99565 2.0533 5.53349C2.00528 5.07132 1.98126 4.84024 1.99952 4.6441C2.07449 3.83866 2.62727 3.15769 3.40009 2.91872C3.58828 2.86053 3.81937 2.83652 4.28153 2.7885L19.2012 1.23824C19.6634 1.19022 19.8945 1.16621 20.0906 1.18446C20.896 1.25944 21.577 1.81221 21.816 2.58504C21.8742 2.77323 21.8982 3.00431 21.9462 3.46648C21.9942 3.92864 22.0182 4.15973 22 4.35586C21.925 5.16131 21.3722 5.84228 20.5994 6.08124C20.4951 6.11349 20.3776 6.13525 20.2149 6.15641"
    stroke="currentColor" stroke-width="1.6" stroke-linecap="round" stroke-linejoin="round" />
  <path
    d="M20 10.5625V16.2C20 17.8802 20 18.7202 19.673 19.362C19.3854 19.9265 18.9265 20.3854 18.362 20.673C17.7202 21 16.8802 21 15.2 21H8.8C7.11984 21 6.27976 21 5.63803 20.673C5.07354 20.3854 4.6146 19.9265 4.32698 19.362C4 18.7202 4 17.8802 4 16.2V10.5625"
    stroke="currentColor" stroke-width="1.6" stroke-linecap="round" stroke-linejoin="round" />
  <path d="M10 13L12 11.1875L14 13" stroke="currentColor" stroke-width="1.6" stroke-linecap="round"
    stroke-linejoin="round" />
</svg>
  