<svg width="25" height="24" viewBox="0 0 25 24" fill="none" xmlns="http://www.w3.org/2000/svg">
  <path
    d="M7.37812 4.19423C7.08408 3.45914 6.93707 3.09159 6.99838 2.79655C7.05199 2.53853 7.20529 2.31211 7.42494 2.1665C7.67611 2 8.07197 2 8.86368 2H16.1372C16.9289 2 17.3247 2 17.5759 2.1665C17.7956 2.31211 17.9489 2.53853 18.0025 2.79655C18.0638 3.09159 17.9168 3.45914 17.6227 4.19423L16.6149 6.71391C16.5721 6.8208 16.5507 6.87424 16.5357 6.92937C16.5223 6.97833 16.5127 7.02825 16.5069 7.07868C16.5004 7.13544 16.5004 7.19301 16.5004 7.30813V9.43875C16.5004 9.64677 16.5004 9.75078 16.5208 9.85026C16.539 9.93852 16.5689 10.0239 16.6099 10.1042C16.6561 10.1946 16.7211 10.2758 16.851 10.4383L18.4208 12.4005C19.0866 13.2327 19.4194 13.6487 19.4198 13.9989C19.4201 14.3035 19.2817 14.5916 19.0437 14.7815C18.77 15 18.2371 15 17.1714 15H7.82943C6.76373 15 6.23088 15 5.9572 14.7815C5.71919 14.5916 5.58073 14.3035 5.58106 13.9989C5.58143 13.6487 5.9143 13.2327 6.58004 12.4005L8.14982 10.4383C8.27977 10.2758 8.34474 10.1946 8.39095 10.1042C8.43194 10.0239 8.4619 9.93852 8.48001 9.85026C8.50043 9.75078 8.50043 9.64677 8.50043 9.43875V7.30813C8.50043 7.19301 8.50043 7.13544 8.49392 7.07868C8.48814 7.02825 8.47853 6.97833 8.46517 6.92937C8.45013 6.87424 8.42875 6.8208 8.38599 6.71391L7.37812 4.19423Z"
    stroke="currentColor" stroke-width="1.6" stroke-linecap="round" stroke-linejoin="round" />
  <path d="M12.502 15L12.502 22" stroke="currentColor" stroke-width="1.6" stroke-linecap="round"
    stroke-linejoin="round" />
</svg>
  